<svg width="78" height="16" fill="none" xmlns="http://www.w3.org/2000/svg"><g clip-path="url(#clip0_638_2862)"><rect y=".5" width="22" height="15" rx="2" fill="#F1F6F4"/><path d="M9.45 5.56l-.807 4.821h1.303l.806-4.821H9.45zm-1.923 0l-1.24 3.333-.124-.714-.434-2.143s-.062-.417-.62-.417H3v.06s.62.119 1.364.535l1.117 4.167h1.364L8.953 5.56H7.527zm9.426 0c-.496 0-.62.357-.62.357l-1.922 4.464h1.364l.248-.714h1.675l.124.714H19L17.946 5.56h-.993zm-.558 3.154l.683-1.785.372 1.785h-1.055zm-3.72-1.785c0-.536 1.302-.477 1.86-.179l.186-1.012s-.558-.238-1.178-.238c-.62 0-2.17.298-2.17 1.607 0 1.25 1.798 1.25 1.798 1.905s-1.613.536-2.171.119l-.186 1.071s.558.298 1.488.298c.869 0 2.233-.417 2.233-1.667-.062-1.25-1.86-1.369-1.86-1.904z" fill="#191D79"/></g><g clip-path="url(#clip1_638_2862)"><rect x="28" y=".5" width="22" height="15" rx="2" fill="#F1F6F4"/><path d="M40.707 4.801h-3.414v6.397h3.414V4.801z" fill="#FF5F00"/><path d="M37.51 8c0-.616.134-1.225.391-1.779a4.035 4.035 0 011.093-1.42 3.776 3.776 0 00-1.981-.847 3.714 3.714 0 00-2.107.386 3.947 3.947 0 00-1.591 1.501A4.22 4.22 0 0032.724 8c0 .763.204 1.511.59 2.159a3.948 3.948 0 001.59 1.5 3.715 3.715 0 002.108.386 3.777 3.777 0 001.981-.847A4.022 4.022 0 0137.9 9.78 4.22 4.22 0 0137.51 8z" fill="#EC001B"/><path d="M45.312 8a4.248 4.248 0 01-.604 2.16 3.973 3.973 0 01-1.601 1.5 3.74 3.74 0 01-2.114.385 3.804 3.804 0 01-1.988-.847 4.03 4.03 0 001.094-1.42A4.23 4.23 0 0040.489 8a4.23 4.23 0 00-.39-1.78 4.03 4.03 0 00-1.094-1.419 3.776 3.776 0 012.406-.87c2.157 0 3.901 1.831 3.901 4.069z" fill="#F89E1B"/></g><g clip-path="url(#clip2_638_2862)"><rect x="56" y=".5" width="22" height="15" rx="2" fill="#F1F6F4"/><path d="M60.433 6.2L58.6 9.523V9.8h1.527l.306-.554h1.222l.305.554h2.138V8.416l.917 1.384h.916l.61-.83v.83h5.194l.916-.83.916.83H75.4l-1.527-1.938L75.4 6.2h-1.833l-.916.831-.916-.83h-5.498l-.917 1.384-.916-1.385h-1.527l-.306 1.385-.61-1.385h-1.528z" fill="#006FCF"/><path fill-rule="evenodd" clip-rule="evenodd" d="M60.031 5.6L58 10.394h2.432l.301-.765h.69l.301.765h2.677V9.81l.238.584h1.385l.239-.596v.596h5.567l.677-.745.634.745L76 10.4l-2.038-2.39L76 5.6h-2.815l-.659.73-.614-.73h-6.056l-.52 1.237-.533-1.237h-2.426v.563l-.27-.563H60.03zm.471.68h1.185l1.348 3.251v-3.25h1.299l1.04 2.33.96-2.33h1.292v3.44h-.787l-.006-2.696-1.146 2.696h-.704l-1.152-2.696v2.696h-1.618l-.306-.772H60.25l-.306.77h-.867l1.425-3.438zm11.04 0h-3.197v3.44h3.147l1.015-1.14.977 1.14h1.023l-1.486-1.71 1.486-1.728h-.978l-1.01 1.126-.977-1.126zm-10.463.583l-.546 1.374h1.09l-.544-1.374zm8.055.758v-.628h1.995L72 7.996l-.908 1.01h-1.957V8.32h1.744v-.7h-1.744z" fill="#fff"/></g><defs><clipPath id="clip0_638_2862"><path fill="#fff" transform="translate(0 .5)" d="M0 0h22v15H0z"/></clipPath><clipPath id="clip1_638_2862"><path fill="#fff" transform="translate(28 .5)" d="M0 0h22v15H0z"/></clipPath><clipPath id="clip2_638_2862"><path fill="#fff" transform="translate(56 .5)" d="M0 0h22v15H0z"/></clipPath></defs></svg>