<svg width="342" height="180" viewBox="0 0 342 180" fill="none" xmlns="http://www.w3.org/2000/svg">
<g clip-path="url(#clip0_13232_66660)">
<path d="M0.5 31.5H342.5" stroke="#EBEFF1"/>
<path d="M0.5 62.5H342.5" stroke="#EBEFF1"/>
<path d="M0.5 93.5H342.5" stroke="#EBEFF1"/>
<path d="M0.5 124.5H342.5" stroke="#EBEFF1"/>
<path d="M0.5 155.5H342.5" stroke="#EBEFF1"/>
<g filter="url(#filter0_d_13232_66660)">
<rect x="86" y="13" width="57" height="143" rx="3" fill="#026AED"/>
</g>
<path d="M106.243 172.58V177H103.948V172.597L100.072 165.78H102.622L105.104 170.234L107.569 165.78H110.102L106.243 172.58ZM114.164 177.187C113.337 177.187 112.578 176.994 111.886 176.609C111.206 176.212 110.668 175.68 110.271 175.011C109.875 174.331 109.676 173.589 109.676 172.784C109.676 171.979 109.875 171.243 110.271 170.574C110.668 169.894 111.212 169.361 111.903 168.976C112.595 168.591 113.354 168.398 114.181 168.398C115.009 168.398 115.768 168.596 116.459 168.993C117.151 169.378 117.695 169.905 118.091 170.574C118.499 171.243 118.703 171.979 118.703 172.784C118.703 173.589 118.499 174.331 118.091 175.011C117.695 175.68 117.145 176.212 116.442 176.609C115.751 176.994 114.992 177.187 114.164 177.187ZM114.181 175.079C114.805 175.079 115.32 174.864 115.728 174.433C116.148 174.002 116.357 173.458 116.357 172.801C116.357 172.144 116.148 171.594 115.728 171.152C115.32 170.71 114.805 170.489 114.181 170.489C113.547 170.489 113.025 170.71 112.617 171.152C112.209 171.583 112.005 172.132 112.005 172.801C112.005 173.458 112.209 174.002 112.617 174.433C113.025 174.864 113.547 175.079 114.181 175.079ZM124.303 177.204C123.566 177.204 122.898 177.045 122.297 176.728C121.708 176.399 121.243 175.94 120.903 175.351C120.574 174.762 120.41 174.076 120.41 173.294V168.585H122.705V173.481C122.705 173.968 122.852 174.359 123.147 174.654C123.453 174.949 123.838 175.096 124.303 175.096C124.745 175.096 125.113 174.949 125.408 174.654C125.714 174.359 125.867 173.968 125.867 173.481V168.585H128.162V173.294C128.162 174.076 127.992 174.762 127.652 175.351C127.323 175.94 126.864 176.399 126.275 176.728C125.686 177.045 125.028 177.204 124.303 177.204Z" fill="#04324A"/>
<rect x="199.5" y="119" width="57" height="37" rx="3" fill="#D7EAFE"/>
<path d="M184.036 177.204C182.937 177.204 181.928 176.949 181.01 176.439C180.104 175.929 179.384 175.232 178.851 174.348C178.33 173.453 178.069 172.467 178.069 171.39C178.069 170.313 178.336 169.333 178.868 168.449C179.401 167.554 180.121 166.851 181.027 166.341C181.945 165.831 182.954 165.576 184.053 165.576C185.119 165.576 186.082 165.825 186.943 166.324C187.816 166.811 188.502 167.491 189 168.364L187.266 169.588C186.473 168.33 185.402 167.701 184.053 167.701C183.362 167.701 182.739 167.86 182.183 168.177C181.639 168.494 181.209 168.936 180.891 169.503C180.585 170.058 180.432 170.693 180.432 171.407C180.432 172.121 180.585 172.756 180.891 173.311C181.209 173.866 181.639 174.303 182.183 174.62C182.739 174.926 183.362 175.079 184.053 175.079C185.402 175.079 186.473 174.45 187.266 173.192L189 174.416C188.513 175.289 187.833 175.974 186.96 176.473C186.088 176.96 185.113 177.204 184.036 177.204ZM194.644 177.187C193.816 177.187 193.057 176.994 192.366 176.609C191.686 176.212 191.147 175.68 190.751 175.011C190.354 174.331 190.156 173.589 190.156 172.784C190.156 171.979 190.354 171.243 190.751 170.574C191.147 169.894 191.691 169.361 192.383 168.976C193.074 168.591 193.833 168.398 194.661 168.398C195.488 168.398 196.247 168.596 196.939 168.993C197.63 169.378 198.174 169.905 198.571 170.574C198.979 171.243 199.183 171.979 199.183 172.784C199.183 173.589 198.979 174.331 198.571 175.011C198.174 175.68 197.624 176.212 196.922 176.609C196.23 176.994 195.471 177.187 194.644 177.187ZM194.661 175.079C195.284 175.079 195.8 174.864 196.208 174.433C196.627 174.002 196.837 173.458 196.837 172.801C196.837 172.144 196.627 171.594 196.208 171.152C195.8 170.71 195.284 170.489 194.661 170.489C194.026 170.489 193.505 170.71 193.097 171.152C192.689 171.583 192.485 172.132 192.485 172.801C192.485 173.458 192.689 174.002 193.097 174.433C193.505 174.864 194.026 175.079 194.661 175.079ZM210.766 168.398C211.752 168.398 212.529 168.71 213.095 169.333C213.662 169.945 213.945 170.761 213.945 171.781V177H211.65V172.104C211.65 171.605 211.514 171.209 211.242 170.914C210.97 170.619 210.608 170.472 210.154 170.472C209.701 170.472 209.327 170.619 209.032 170.914C208.749 171.209 208.607 171.588 208.607 172.053V177H206.312V172.104C206.312 171.605 206.176 171.209 205.904 170.914C205.632 170.619 205.27 170.472 204.816 170.472C204.352 170.472 203.978 170.619 203.694 170.914C203.411 171.209 203.269 171.605 203.269 172.104V177H200.974V168.585H203.082V169.333C203.366 169.038 203.711 168.812 204.119 168.653C204.527 168.483 204.975 168.398 205.462 168.398C206.573 168.398 207.406 168.8 207.961 169.605C208.29 169.231 208.692 168.936 209.168 168.721C209.656 168.506 210.188 168.398 210.766 168.398ZM220.943 168.398C221.725 168.398 222.422 168.591 223.034 168.976C223.657 169.35 224.144 169.871 224.496 170.54C224.847 171.197 225.023 171.945 225.023 172.784C225.023 173.623 224.847 174.376 224.496 175.045C224.144 175.714 223.657 176.241 223.034 176.626C222.422 177.011 221.725 177.204 220.943 177.204C220.433 177.204 219.962 177.119 219.532 176.949C219.101 176.768 218.733 176.513 218.427 176.184V180.06H216.132V168.585H218.24V169.639C218.523 169.242 218.897 168.936 219.362 168.721C219.838 168.506 220.365 168.398 220.943 168.398ZM220.518 175.113C221.13 175.113 221.645 174.903 222.065 174.484C222.484 174.053 222.694 173.492 222.694 172.801C222.694 172.098 222.484 171.537 222.065 171.118C221.657 170.687 221.141 170.472 220.518 170.472C219.94 170.472 219.441 170.67 219.022 171.067C218.602 171.452 218.393 172.025 218.393 172.784C218.393 173.532 218.597 174.11 219.005 174.518C219.424 174.915 219.928 175.113 220.518 175.113ZM234.558 173.566H228.659C228.795 174.099 229.067 174.512 229.475 174.807C229.894 175.09 230.41 175.232 231.022 175.232C231.849 175.232 232.631 174.949 233.368 174.382L234.32 175.946C233.323 176.785 232.201 177.204 230.954 177.204C230.081 177.204 229.294 177.011 228.591 176.626C227.888 176.241 227.339 175.714 226.942 175.045C226.545 174.365 226.347 173.617 226.347 172.801C226.347 171.985 226.54 171.243 226.925 170.574C227.31 169.894 227.837 169.361 228.506 168.976C229.186 168.591 229.934 168.398 230.75 168.398C231.521 168.398 232.206 168.574 232.807 168.925C233.408 169.265 233.872 169.735 234.201 170.336C234.541 170.925 234.711 171.583 234.711 172.308C234.711 172.716 234.66 173.135 234.558 173.566ZM230.665 170.251C230.178 170.251 229.753 170.404 229.39 170.71C229.027 171.016 228.784 171.43 228.659 171.951H232.484C232.473 171.43 232.291 171.016 231.94 170.71C231.589 170.404 231.164 170.251 230.665 170.251ZM241.908 175.079V177C241.364 177.136 240.837 177.204 240.327 177.204C239.261 177.204 238.434 176.943 237.845 176.422C237.255 175.889 236.961 175.096 236.961 174.042V170.523H235.635V168.585H236.961V166.46H239.256V168.585H241.636V170.523H239.256V173.838C239.256 174.314 239.38 174.654 239.63 174.858C239.879 175.051 240.276 175.147 240.82 175.147C240.956 175.147 241.318 175.124 241.908 175.079ZM243.574 168.585H245.869V177H243.574V168.585ZM244.713 166.936C244.305 166.936 243.959 166.8 243.676 166.528C243.393 166.256 243.251 165.922 243.251 165.525C243.251 165.117 243.393 164.777 243.676 164.505C243.959 164.233 244.305 164.097 244.713 164.097C245.121 164.097 245.467 164.233 245.75 164.505C246.045 164.777 246.192 165.117 246.192 165.525C246.192 165.922 246.045 166.256 245.75 166.528C245.467 166.8 245.121 166.936 244.713 166.936ZM253.545 175.079V177C253.001 177.136 252.474 177.204 251.964 177.204C250.899 177.204 250.072 176.943 249.482 176.422C248.893 175.889 248.598 175.096 248.598 174.042V170.523H247.272V168.585H248.598V166.46H250.893V168.585H253.273V170.523H250.893V173.838C250.893 174.314 251.018 174.654 251.267 174.858C251.517 175.051 251.913 175.147 252.457 175.147C252.593 175.147 252.956 175.124 253.545 175.079ZM259.058 177.187C258.23 177.187 257.471 176.994 256.78 176.609C256.1 176.212 255.561 175.68 255.165 175.011C254.768 174.331 254.57 173.589 254.57 172.784C254.57 171.979 254.768 171.243 255.165 170.574C255.561 169.894 256.105 169.361 256.797 168.976C257.488 168.591 258.247 168.398 259.075 168.398C259.902 168.398 260.661 168.596 261.353 168.993C262.044 169.378 262.588 169.905 262.985 170.574C263.393 171.243 263.597 171.979 263.597 172.784C263.597 173.589 263.393 174.331 262.985 175.011C262.588 175.68 262.038 176.212 261.336 176.609C260.644 176.994 259.885 177.187 259.058 177.187ZM259.075 175.079C259.698 175.079 260.214 174.864 260.622 174.433C261.041 174.002 261.251 173.458 261.251 172.801C261.251 172.144 261.041 171.594 260.622 171.152C260.214 170.71 259.698 170.489 259.075 170.489C258.44 170.489 257.919 170.71 257.511 171.152C257.103 171.583 256.899 172.132 256.899 172.801C256.899 173.458 257.103 174.002 257.511 174.433C257.919 174.864 258.44 175.079 259.075 175.079ZM270.557 168.585V170.608H269.945C269.253 170.608 268.704 170.795 268.296 171.169C267.888 171.532 267.684 172.076 267.684 172.801V177H265.389V168.585H267.497V169.588C267.78 169.237 268.12 168.965 268.517 168.772C268.913 168.579 269.344 168.483 269.809 168.483C270.092 168.483 270.341 168.517 270.557 168.585ZM274.699 177.204C273.963 177.204 273.294 177.062 272.693 176.779C272.093 176.484 271.6 176.082 271.214 175.572L272.37 174.178C273.107 174.937 273.895 175.317 274.733 175.317C275.039 175.317 275.294 175.26 275.498 175.147C275.702 175.022 275.804 174.847 275.804 174.62C275.804 174.439 275.736 174.303 275.6 174.212C275.476 174.11 275.255 173.991 274.937 173.855L274.036 173.481C273.266 173.164 272.688 172.812 272.302 172.427C271.928 172.042 271.741 171.537 271.741 170.914C271.741 170.121 272.025 169.503 272.591 169.061C273.169 168.619 273.917 168.398 274.835 168.398C276.093 168.398 277.102 168.817 277.861 169.656L276.705 171.067C276.139 170.534 275.51 170.268 274.818 170.268C274.535 170.268 274.314 170.319 274.155 170.421C273.997 170.523 273.917 170.67 273.917 170.863C273.917 171.022 273.98 171.152 274.104 171.254C274.24 171.356 274.473 171.475 274.801 171.611L275.617 171.951C276.433 172.28 277.028 172.637 277.402 173.022C277.788 173.396 277.98 173.895 277.98 174.518C277.98 175.357 277.669 176.014 277.045 176.49C276.433 176.966 275.651 177.204 274.699 177.204Z" fill="#04324A"/>
</g>
<defs>
<filter id="filter0_d_13232_66660" x="74" y="3" width="81" height="167" filterUnits="userSpaceOnUse" color-interpolation-filters="sRGB">
<feFlood flood-opacity="0" result="BackgroundImageFix"/>
<feColorMatrix in="SourceAlpha" type="matrix" values="0 0 0 0 0 0 0 0 0 0 0 0 0 0 0 0 0 0 127 0" result="hardAlpha"/>
<feMorphology radius="3" operator="erode" in="SourceAlpha" result="effect1_dropShadow_13232_66660"/>
<feOffset dy="2"/>
<feGaussianBlur stdDeviation="7.5"/>
<feComposite in2="hardAlpha" operator="out"/>
<feColorMatrix type="matrix" values="0 0 0 0 0.00784314 0 0 0 0 0.415686 0 0 0 0 0.929412 0 0 0 0.83 0"/>
<feBlend mode="normal" in2="BackgroundImageFix" result="effect1_dropShadow_13232_66660"/>
<feBlend mode="normal" in="SourceGraphic" in2="effect1_dropShadow_13232_66660" result="shape"/>
</filter>
<clipPath id="clip0_13232_66660">
<rect width="342" height="180" fill="white"/>
</clipPath>
</defs>
</svg>
