<svg width="86" height="24" viewBox="0 0 86 24" fill="none" xmlns="http://www.w3.org/2000/svg">
          <path d="M40.7021 0H44.7471V18.838H40.7021V0Z" fill="#04324A"/>
          <path fill-rule="evenodd" clip-rule="evenodd" d="M21.6983 5.75037C24.9061 6.67687 26.2187 9.61865 25.6158 13.0153H16.8174C16.6268 15.9359 21.6772 17.8406 23.2336 13.9042L26.1876 15.0153L26.2721 15.0261C25.4302 17.41 23.4047 19.0789 20.0258 19.0789C16.1189 19.0789 13.3237 16.1325 13.3237 12.3805C13.3237 8.69805 15.706 5.53125 20.0258 5.53125C20.6015 5.53125 21.1622 5.60739 21.6983 5.75037ZM22.3436 10.7304H16.8168C16.8803 10.159 17.7199 8.47643 19.8025 8.47643C21.8672 8.41295 22.4389 9.96848 22.3436 10.7304Z" fill="#04324A"/>
          <path fill-rule="evenodd" clip-rule="evenodd" d="M37.1644 6.61553C39.0383 7.9671 39.7437 10.3513 39.2708 13.0153H30.4724C30.2818 15.9359 35.3322 17.8406 36.8886 13.9042L39.8165 15.0055C38.979 17.4003 36.9516 19.0789 33.5629 19.0789C29.656 19.0789 26.8608 16.1325 26.8608 12.3805C26.8608 8.69805 29.2431 5.53125 33.5629 5.53125C34.8801 5.53125 36.1188 5.92986 37.1644 6.61553ZM35.8807 10.7304H30.3539C30.4174 10.159 31.257 8.47643 33.3397 8.47643C35.4043 8.41295 35.976 9.96848 35.8807 10.7304Z" fill="#04324A"/>
          <path d="M55.7456 5.9043H59.3349L50.6635 23.9993H47.106L55.7456 5.9043Z" fill="#04324A"/>
          <path d="M45.5156 5.9043L49.2155 5.9043L52.3765 12.9836L50.566 16.7613L45.5156 5.9043Z" fill="#04324A"/>
          <path d="M9.25249 5.9043H13.2901L4.03762 18.8565H0L9.25249 5.9043Z" fill="#04324A"/>
          <path d="M0.365234 5.9043H10.2754V8.8249H0.365234V5.9043Z" fill="#04324A"/>
          <path d="M3.09717 15.9365H12.6262V18.8571H3.09717V15.9365Z" fill="#04324A"/>
          <path opacity="0.85" d="M85.8497 11.6032C85.8497 12.9122 85.5917 14.2084 85.0905 15.4178C84.5893 16.6272 83.8546 17.7261 82.9285 18.6517C82.0024 19.5773 80.9029 20.3116 79.6928 20.8125C78.4827 21.3135 77.1858 21.5713 75.876 21.5713C74.5663 21.5713 73.2693 21.3135 72.0593 20.8125C70.8492 20.3116 69.7497 19.5773 68.8236 18.6517C67.8974 17.7261 67.1628 16.6272 66.6615 15.4178C66.1603 14.2084 65.9023 12.9122 65.9023 11.6032L75.876 11.6032L85.8497 11.6032Z" fill="url(#paint0_radial_12911_65852)"/>
          <path d="M83.2272 11.6029C83.2272 10.2939 82.9692 8.99764 82.468 7.78825C81.9667 6.57886 81.2321 5.47999 80.3059 4.55436C79.3798 3.62873 78.2803 2.89449 77.0702 2.39354C75.8602 1.8926 74.5632 1.63477 73.2535 1.63477C71.9437 1.63477 70.6468 1.8926 69.4367 2.39354C68.2266 2.89449 67.1272 3.62874 66.201 4.55436C65.2749 5.47999 64.5402 6.57886 64.039 7.78825C63.5378 8.99764 63.2798 10.2939 63.2798 11.6029L73.2535 11.6029L83.2272 11.6029Z" fill="url(#paint1_radial_12911_65852)"/>
          <defs>
          <radialGradient id="paint0_radial_12911_65852" cx="0" cy="0" r="1" gradientUnits="userSpaceOnUse" gradientTransform="translate(65.9023 21.5713) rotate(-44.984) scale(28.202 31.2545)">
          <stop stop-color="#1DBF53"/>
          <stop offset="1" stop-color="#41E477"/>
          </radialGradient>
          <radialGradient id="paint1_radial_12911_65852" cx="0" cy="0" r="1" gradientUnits="userSpaceOnUse" gradientTransform="translate(63.2798 1.63477) rotate(44.984) scale(28.202 31.2546)">
          <stop stop-color="#1DBF53"/>
          <stop offset="1" stop-color="#41E477"/>
          </radialGradient>
          </defs>
          </svg>