<svg width="259" height="235" viewBox="0 0 259 235" fill="none" xmlns="http://www.w3.org/2000/svg">
<path d="M205.276 10.29V12H198.751V11.46L202.306 6.285H199.096V4.575H205.246V5.115L201.721 10.29H205.276ZM213.343 8.97H208.138C208.258 9.44 208.498 9.805 208.858 10.065C209.228 10.315 209.683 10.44 210.223 10.44C210.953 10.44 211.643 10.19 212.293 9.69L213.133 11.07C212.253 11.81 211.263 12.18 210.163 12.18C209.393 12.18 208.698 12.01 208.078 11.67C207.458 11.33 206.973 10.865 206.623 10.275C206.273 9.675 206.098 9.015 206.098 8.295C206.098 7.575 206.268 6.92 206.608 6.33C206.948 5.73 207.413 5.26 208.003 4.92C208.603 4.58 209.263 4.41 209.983 4.41C210.663 4.41 211.268 4.565 211.798 4.875C212.328 5.175 212.738 5.59 213.028 6.12C213.328 6.64 213.478 7.22 213.478 7.86C213.478 8.22 213.433 8.59 213.343 8.97ZM209.908 6.045C209.478 6.045 209.103 6.18 208.783 6.45C208.463 6.72 208.248 7.085 208.138 7.545H211.513C211.503 7.085 211.343 6.72 211.033 6.45C210.723 6.18 210.348 6.045 209.908 6.045ZM221.883 8.97H216.678C216.798 9.44 217.038 9.805 217.398 10.065C217.768 10.315 218.223 10.44 218.763 10.44C219.493 10.44 220.183 10.19 220.833 9.69L221.673 11.07C220.793 11.81 219.803 12.18 218.703 12.18C217.933 12.18 217.238 12.01 216.618 11.67C215.998 11.33 215.513 10.865 215.163 10.275C214.813 9.675 214.638 9.015 214.638 8.295C214.638 7.575 214.808 6.92 215.148 6.33C215.488 5.73 215.953 5.26 216.543 4.92C217.143 4.58 217.803 4.41 218.523 4.41C219.203 4.41 219.808 4.565 220.338 4.875C220.868 5.175 221.278 5.59 221.568 6.12C221.868 6.64 222.018 7.22 222.018 7.86C222.018 8.22 221.973 8.59 221.883 8.97ZM218.448 6.045C218.018 6.045 217.643 6.18 217.323 6.45C217.003 6.72 216.788 7.085 216.678 7.545H220.053C220.043 7.085 219.883 6.72 219.573 6.45C219.263 6.18 218.888 6.045 218.448 6.045ZM223.598 0.749999H225.623V12H223.598V0.749999ZM234.826 4.575L231.271 12.645C230.931 13.415 230.526 13.98 230.056 14.34C229.586 14.7 229.006 14.88 228.316 14.88C227.896 14.88 227.461 14.82 227.011 14.7V13.005C227.471 13.045 227.761 13.065 227.881 13.065C228.241 13.065 228.546 12.995 228.796 12.855C229.046 12.715 229.256 12.45 229.426 12.06L229.651 11.55L226.801 4.575H228.946L230.761 9.45L232.696 4.575H234.826Z" fill="#0167EF"/>
<circle opacity="0.22" cx="248" cy="21" r="11" fill="#0167EF"/>
<circle cx="248" cy="21" r="4" fill="#0167EF"/>
<circle opacity="0.22" cx="11" cy="72" r="11" fill="#0167EF"/>
<circle cx="11" cy="72" r="4" fill="#0167EF"/>
<path d="M66.081 79.2763C36.2665 59.6083 26.1599 63.1385 11 72.7204V164H248V95.5C231.829 95.5 205.958 114.181 162.5 93C119.042 71.8191 95.8955 98.9443 66.081 79.2763Z" fill="url(#paint0_linear_437_1755)"/>
<path d="M12 72.7447C27.032 63.1326 37.0533 59.5913 66.6162 79.3213C96.1791 99.0514 117.908 71.2523 161 92.5C204.092 113.748 231.466 95.5 247.5 95.5" stroke="#FBDE8F" stroke-width="2" stroke-linecap="round"/>
<path d="M66.27 68.8092C43.2162 79.2624 25.3617 77.5678 11 73V164H248V22C233.063 35.5898 211.156 52.7028 167.84 48.6762C124.523 44.6496 89.3238 58.3559 66.27 68.8092Z" fill="url(#paint1_linear_437_1755)"/>
<path d="M11 72.3952C25.3617 76.9984 43.2162 78.7062 66.27 68.1719C89.3238 57.6376 124.523 43.8251 167.84 47.8829C211.156 51.9407 233.063 34.6951 248 21" stroke="#0167EF" stroke-width="2" stroke-linecap="round"/>
<path d="M26 196C26 193.791 27.7909 192 30 192H34C36.2091 192 38 193.791 38 196V200C38 202.209 36.2091 204 34 204H30C27.7909 204 26 202.209 26 200V196Z" fill="#0167EF"/>
<path d="M46.7974 197.448H53.5014V198.488H46.7974V197.448Z" fill="#002E48"/>
<path d="M63.5515 203.16C62.8048 203.16 62.1222 202.979 61.5035 202.616C60.8848 202.253 60.3942 201.763 60.0315 201.144C59.6688 200.515 59.4875 199.832 59.4875 199.096C59.4875 198.349 59.6688 197.667 60.0315 197.048C60.3942 196.419 60.8848 195.928 61.5035 195.576C62.1328 195.213 62.8208 195.032 63.5675 195.032C64.3142 195.032 64.9968 195.213 65.6155 195.576C66.2448 195.939 66.7408 196.429 67.1035 197.048C67.4662 197.667 67.6475 198.349 67.6475 199.096C67.6475 199.832 67.4662 200.515 67.1035 201.144C66.7408 201.763 66.2448 202.253 65.6155 202.616C64.9862 202.979 64.2982 203.16 63.5515 203.16ZM63.5515 202.024C64.0742 202.024 64.5488 201.896 64.9755 201.64C65.4128 201.384 65.7542 201.037 65.9995 200.6C66.2555 200.152 66.3835 199.656 66.3835 199.112C66.3835 198.557 66.2608 198.056 66.0155 197.608C65.7702 197.16 65.4288 196.808 64.9915 196.552C64.5648 196.296 64.0902 196.168 63.5675 196.168C63.0342 196.168 62.5542 196.296 62.1275 196.552C61.7008 196.808 61.3648 197.16 61.1195 197.608C60.8742 198.056 60.7515 198.557 60.7515 199.112C60.7515 199.656 60.8742 200.152 61.1195 200.6C61.3648 201.037 61.7008 201.384 62.1275 201.64C62.5542 201.896 63.0288 202.024 63.5515 202.024Z" fill="#002E48"/>
<path d="M78.3571 195.032C79.2531 195.032 79.9465 195.315 80.4371 195.88C80.9385 196.435 81.1891 197.176 81.1891 198.104V203H79.9571V198.264C79.9571 197.635 79.7918 197.128 79.4611 196.744C79.1411 196.36 78.6931 196.168 78.1171 196.168C77.5305 196.168 77.0505 196.36 76.6771 196.744C76.3038 197.128 76.1171 197.597 76.1171 198.152V203H74.8851V198.264C74.8851 197.635 74.7145 197.128 74.3731 196.744C74.0425 196.36 73.5945 196.168 73.0291 196.168C72.4425 196.168 71.9625 196.365 71.5891 196.76C71.2265 197.144 71.0451 197.645 71.0451 198.264V203H69.8131V195.208H70.9651V196.024C71.2425 195.704 71.5785 195.459 71.9731 195.288C72.3678 195.117 72.8051 195.032 73.2851 195.032C73.8505 195.032 74.3358 195.149 74.7411 195.384C75.1465 195.619 75.4611 195.949 75.6851 196.376C75.9731 195.971 76.3465 195.645 76.8051 195.4C77.2638 195.155 77.7811 195.032 78.3571 195.032Z" fill="#002E48"/>
<path d="M87.3495 195.032C88.2562 195.032 88.9655 195.315 89.4775 195.88C89.9895 196.445 90.2455 197.187 90.2455 198.104V203H89.0135V198.248C89.0135 197.629 88.8375 197.128 88.4855 196.744C88.1442 196.36 87.6748 196.168 87.0775 196.168C86.4802 196.168 85.9895 196.365 85.6055 196.76C85.2215 197.144 85.0295 197.64 85.0295 198.248V203H83.7975V195.208H84.9495V196.04C85.2375 195.72 85.5842 195.475 85.9895 195.304C86.4055 195.123 86.8588 195.032 87.3495 195.032Z" fill="#002E48"/>
<path d="M92.86 195.208H94.092V203H92.86V195.208ZM93.484 193.128C93.228 193.128 93.0093 193.043 92.828 192.872C92.6467 192.701 92.556 192.488 92.556 192.232C92.556 191.987 92.6467 191.779 92.828 191.608C93.0093 191.427 93.228 191.336 93.484 191.336C93.7293 191.336 93.9427 191.427 94.124 191.608C94.3053 191.779 94.396 191.987 94.396 192.232C94.396 192.488 94.3053 192.701 94.124 192.872C93.9533 193.043 93.74 193.128 93.484 193.128Z" fill="#002E48"/>
<path d="M100.317 203.176C99.5708 203.176 98.8828 202.995 98.2535 202.632C97.6348 202.269 97.1442 201.779 96.7815 201.16C96.4188 200.531 96.2375 199.843 96.2375 199.096C96.2375 198.349 96.4188 197.667 96.7815 197.048C97.1442 196.429 97.6348 195.939 98.2535 195.576C98.8828 195.213 99.5708 195.032 100.317 195.032C101 195.032 101.619 195.187 102.174 195.496C102.728 195.795 103.182 196.205 103.534 196.728L102.654 197.432C102.024 196.589 101.251 196.168 100.334 196.168C99.8002 196.168 99.3148 196.301 98.8775 196.568C98.4508 196.824 98.1148 197.176 97.8695 197.624C97.6242 198.072 97.5015 198.563 97.5015 199.096C97.5015 199.64 97.6242 200.136 97.8695 200.584C98.1148 201.032 98.4508 201.389 98.8775 201.656C99.3148 201.912 99.8002 202.04 100.334 202.04C101.251 202.04 102.019 201.624 102.637 200.792L103.518 201.48C103.166 202.003 102.712 202.419 102.158 202.728C101.614 203.027 101 203.176 100.317 203.176Z" fill="#002E48"/>
<path d="M109.178 195.032C110.074 195.032 110.778 195.315 111.29 195.88C111.802 196.445 112.058 197.187 112.058 198.104V203H110.826V198.264C110.826 197.635 110.65 197.128 110.298 196.744C109.957 196.36 109.487 196.168 108.89 196.168C108.293 196.168 107.802 196.365 107.418 196.76C107.034 197.155 106.842 197.656 106.842 198.264V203H105.61V191H106.842V196.088C107.109 195.757 107.439 195.501 107.834 195.32C108.239 195.128 108.687 195.032 109.178 195.032Z" fill="#002E48"/>
<path d="M117.473 195.032C118.39 195.032 119.126 195.304 119.681 195.848C120.235 196.392 120.512 197.176 120.512 198.2V203H119.361V201.992C119.073 202.376 118.705 202.669 118.257 202.872C117.809 203.075 117.302 203.176 116.737 203.176C115.937 203.176 115.281 202.979 114.769 202.584C114.267 202.189 114.017 201.656 114.017 200.984C114.017 200.323 114.273 199.795 114.785 199.4C115.297 199.005 115.974 198.808 116.816 198.808H119.281V198.136C119.281 197.496 119.11 197.011 118.769 196.68C118.438 196.339 117.979 196.168 117.393 196.168C116.923 196.168 116.507 196.275 116.145 196.488C115.782 196.691 115.44 197 115.12 197.416L114.304 196.744C114.656 196.168 115.11 195.741 115.664 195.464C116.219 195.176 116.822 195.032 117.473 195.032ZM116.896 202.152C117.323 202.152 117.718 202.061 118.08 201.88C118.443 201.688 118.731 201.427 118.945 201.096C119.169 200.765 119.281 200.403 119.281 200.008V199.816H116.961C116.417 199.816 116.001 199.912 115.713 200.104C115.425 200.285 115.281 200.557 115.281 200.92C115.281 201.315 115.435 201.619 115.744 201.832C116.054 202.045 116.438 202.152 116.896 202.152Z" fill="#002E48"/>
<path d="M126.678 195.032C127.584 195.032 128.294 195.315 128.806 195.88C129.318 196.445 129.574 197.187 129.574 198.104V203H128.342V198.248C128.342 197.629 128.166 197.128 127.814 196.744C127.472 196.36 127.003 196.168 126.406 196.168C125.808 196.168 125.318 196.365 124.934 196.76C124.55 197.144 124.358 197.64 124.358 198.248V203H123.126V195.208H124.278V196.04C124.566 195.72 124.912 195.475 125.318 195.304C125.734 195.123 126.187 195.032 126.678 195.032Z" fill="#002E48"/>
<path d="M135.74 195.032C136.647 195.032 137.356 195.315 137.868 195.88C138.38 196.445 138.636 197.187 138.636 198.104V203H137.404V198.248C137.404 197.629 137.228 197.128 136.876 196.744C136.535 196.36 136.065 196.168 135.468 196.168C134.871 196.168 134.38 196.365 133.996 196.76C133.612 197.144 133.42 197.64 133.42 198.248V203H132.188V195.208H133.34V196.04C133.628 195.72 133.975 195.475 134.38 195.304C134.796 195.123 135.249 195.032 135.74 195.032Z" fill="#002E48"/>
<path d="M148.131 199.48H141.971C142.045 200.248 142.349 200.867 142.883 201.336C143.416 201.805 144.067 202.04 144.835 202.04C145.72 202.04 146.515 201.688 147.219 200.984L147.939 201.816C147.533 202.243 147.064 202.579 146.531 202.824C146.008 203.059 145.437 203.176 144.819 203.176C144.051 203.176 143.352 203 142.723 202.648C142.093 202.285 141.597 201.795 141.235 201.176C140.872 200.557 140.691 199.869 140.691 199.112C140.691 198.365 140.867 197.683 141.219 197.064C141.571 196.435 142.051 195.939 142.659 195.576C143.267 195.213 143.939 195.032 144.675 195.032C145.336 195.032 145.939 195.181 146.483 195.48C147.027 195.779 147.453 196.195 147.763 196.728C148.072 197.261 148.227 197.869 148.227 198.552C148.227 198.851 148.195 199.16 148.131 199.48ZM144.643 196.152C143.992 196.152 143.427 196.36 142.947 196.776C142.467 197.181 142.157 197.72 142.019 198.392H146.963C146.952 197.699 146.723 197.155 146.275 196.76C145.837 196.355 145.293 196.152 144.643 196.152Z" fill="#002E48"/>
<path d="M150.391 191H151.623V203H150.391V191Z" fill="#002E48"/>
<path d="M167.357 195.032C168.253 195.032 168.946 195.315 169.437 195.88C169.938 196.435 170.189 197.176 170.189 198.104V203H168.957V198.264C168.957 197.635 168.792 197.128 168.461 196.744C168.141 196.36 167.693 196.168 167.117 196.168C166.53 196.168 166.05 196.36 165.677 196.744C165.304 197.128 165.117 197.597 165.117 198.152V203H163.885V198.264C163.885 197.635 163.714 197.128 163.373 196.744C163.042 196.36 162.594 196.168 162.029 196.168C161.442 196.168 160.962 196.365 160.589 196.76C160.226 197.144 160.045 197.645 160.045 198.264V203H158.813V195.208H159.965V196.024C160.242 195.704 160.578 195.459 160.973 195.288C161.368 195.117 161.805 195.032 162.285 195.032C162.85 195.032 163.336 195.149 163.741 195.384C164.146 195.619 164.461 195.949 164.685 196.376C164.973 195.971 165.346 195.645 165.805 195.4C166.264 195.155 166.781 195.032 167.357 195.032Z" fill="#002E48"/>
<path d="M175.598 195.032C176.515 195.032 177.251 195.304 177.805 195.848C178.36 196.392 178.637 197.176 178.637 198.2V203H177.486V201.992C177.198 202.376 176.83 202.669 176.382 202.872C175.934 203.075 175.427 203.176 174.861 203.176C174.061 203.176 173.405 202.979 172.893 202.584C172.392 202.189 172.141 201.656 172.141 200.984C172.141 200.323 172.398 199.795 172.91 199.4C173.422 199.005 174.099 198.808 174.941 198.808H177.406V198.136C177.406 197.496 177.235 197.011 176.893 196.68C176.563 196.339 176.104 196.168 175.518 196.168C175.048 196.168 174.632 196.275 174.27 196.488C173.907 196.691 173.565 197 173.245 197.416L172.43 196.744C172.782 196.168 173.235 195.741 173.79 195.464C174.344 195.176 174.947 195.032 175.598 195.032ZM175.021 202.152C175.448 202.152 175.843 202.061 176.206 201.88C176.568 201.688 176.856 201.427 177.07 201.096C177.294 200.765 177.406 200.403 177.406 200.008V199.816H175.085C174.541 199.816 174.125 199.912 173.837 200.104C173.549 200.285 173.406 200.557 173.406 200.92C173.406 201.315 173.56 201.619 173.87 201.832C174.179 202.045 174.563 202.152 175.021 202.152Z" fill="#002E48"/>
<path d="M185.395 195.208V196.296H184.931C184.493 196.296 184.088 196.387 183.715 196.568C183.341 196.749 183.043 197.011 182.819 197.352C182.595 197.693 182.483 198.104 182.483 198.584V203H181.251V195.208H182.403V196.312C182.68 195.939 183.032 195.651 183.459 195.448C183.896 195.245 184.349 195.144 184.819 195.144C184.989 195.144 185.181 195.165 185.395 195.208Z" fill="#002E48"/>
<path d="M187.048 191H188.279V203H187.048V191ZM193.576 203H191.992L188.408 198.616L191.656 195.208H193.271L189.896 198.632L193.576 203Z" fill="#002E48"/>
<path d="M201.709 199.48H195.549C195.623 200.248 195.927 200.867 196.461 201.336C196.994 201.805 197.645 202.04 198.413 202.04C199.298 202.04 200.093 201.688 200.797 200.984L201.517 201.816C201.111 202.243 200.642 202.579 200.109 202.824C199.586 203.059 199.015 203.176 198.397 203.176C197.629 203.176 196.93 203 196.301 202.648C195.671 202.285 195.175 201.795 194.813 201.176C194.45 200.557 194.269 199.869 194.269 199.112C194.269 198.365 194.445 197.683 194.797 197.064C195.149 196.435 195.629 195.939 196.237 195.576C196.845 195.213 197.517 195.032 198.253 195.032C198.914 195.032 199.517 195.181 200.061 195.48C200.605 195.779 201.031 196.195 201.341 196.728C201.65 197.261 201.805 197.869 201.805 198.552C201.805 198.851 201.773 199.16 201.709 199.48ZM198.221 196.152C197.57 196.152 197.005 196.36 196.525 196.776C196.045 197.181 195.735 197.72 195.597 198.392H200.541C200.53 197.699 200.301 197.155 199.853 196.76C199.415 196.355 198.871 196.152 198.221 196.152Z" fill="#002E48"/>
<path d="M208.225 201.96V203C207.735 203.117 207.303 203.176 206.929 203.176C206.119 203.176 205.479 202.968 205.009 202.552C204.54 202.136 204.305 201.501 204.305 200.648V196.312H202.993V195.208H204.305V193.08H205.537V195.208H207.969V196.312H205.537V200.568C205.537 201.123 205.676 201.512 205.953 201.736C206.241 201.949 206.652 202.056 207.185 202.056C207.484 202.056 207.831 202.024 208.225 201.96Z" fill="#002E48"/>
<path d="M210.063 195.208H211.295V203H210.063V195.208ZM210.687 193.128C210.431 193.128 210.212 193.043 210.031 192.872C209.85 192.701 209.759 192.488 209.759 192.232C209.759 191.987 209.85 191.779 210.031 191.608C210.212 191.427 210.431 191.336 210.687 191.336C210.932 191.336 211.146 191.427 211.327 191.608C211.508 191.779 211.599 191.987 211.599 192.232C211.599 192.488 211.508 192.701 211.327 192.872C211.156 193.043 210.943 193.128 210.687 193.128Z" fill="#002E48"/>
<path d="M217.553 195.032C218.459 195.032 219.169 195.315 219.681 195.88C220.193 196.445 220.449 197.187 220.449 198.104V203H219.217V198.248C219.217 197.629 219.041 197.128 218.689 196.744C218.347 196.36 217.878 196.168 217.281 196.168C216.683 196.168 216.193 196.365 215.809 196.76C215.425 197.144 215.233 197.64 215.233 198.248V203H214.001V195.208H215.153V196.04C215.441 195.72 215.787 195.475 216.193 195.304C216.609 195.123 217.062 195.032 217.553 195.032Z" fill="#002E48"/>
<path d="M230.551 195.208V202.248C230.551 203.432 230.204 204.36 229.511 205.032C228.828 205.715 227.911 206.056 226.759 206.056C226.002 206.056 225.308 205.912 224.679 205.624C224.06 205.347 223.532 204.989 223.095 204.552L223.815 203.688C224.252 204.072 224.7 204.371 225.159 204.584C225.618 204.808 226.14 204.92 226.727 204.92C227.538 204.92 228.172 204.696 228.631 204.248C229.09 203.8 229.319 203.155 229.319 202.312V201.624C229.01 202.029 228.594 202.349 228.071 202.584C227.559 202.808 227.01 202.92 226.423 202.92C225.698 202.92 225.042 202.749 224.455 202.408C223.879 202.067 223.426 201.597 223.095 201C222.764 200.403 222.599 199.731 222.599 198.984C222.599 198.237 222.764 197.565 223.095 196.968C223.426 196.371 223.879 195.901 224.455 195.56C225.042 195.208 225.698 195.032 226.423 195.032C227.042 195.032 227.612 195.16 228.135 195.416C228.668 195.661 229.084 196.008 229.383 196.456V195.208H230.551ZM226.615 201.784C227.095 201.784 227.538 201.683 227.943 201.48C228.359 201.277 228.695 200.968 228.951 200.552C229.207 200.125 229.335 199.603 229.335 198.984C229.335 198.365 229.207 197.848 228.951 197.432C228.695 197.016 228.359 196.707 227.943 196.504C227.527 196.301 227.084 196.2 226.615 196.2C226.092 196.2 225.618 196.323 225.191 196.568C224.775 196.803 224.444 197.133 224.199 197.56C223.964 197.976 223.847 198.456 223.847 199C223.847 199.544 223.964 200.029 224.199 200.456C224.444 200.872 224.775 201.197 225.191 201.432C225.618 201.667 226.092 201.784 226.615 201.784Z" fill="#002E48"/>
<path d="M27.5 224C27.5 221.791 29.2909 220 31.5 220H35.5C37.7091 220 39.5 221.791 39.5 224V228C39.5 230.209 37.7091 232 35.5 232H31.5C29.2909 232 27.5 230.209 27.5 228V224Z" fill="#FBDE8F"/>
<path d="M48.4224 225.448H55.1264V226.488H48.4224V225.448Z" fill="#002E48"/>
<path d="M65.1765 231.16C64.4298 231.16 63.7472 230.979 63.1285 230.616C62.5098 230.253 62.0192 229.763 61.6565 229.144C61.2938 228.515 61.1125 227.832 61.1125 227.096C61.1125 226.349 61.2938 225.667 61.6565 225.048C62.0192 224.419 62.5098 223.928 63.1285 223.576C63.7578 223.213 64.4458 223.032 65.1925 223.032C65.9392 223.032 66.6218 223.213 67.2405 223.576C67.8698 223.939 68.3658 224.429 68.7285 225.048C69.0912 225.667 69.2725 226.349 69.2725 227.096C69.2725 227.832 69.0912 228.515 68.7285 229.144C68.3658 229.763 67.8698 230.253 67.2405 230.616C66.6112 230.979 65.9232 231.16 65.1765 231.16ZM65.1765 230.024C65.6992 230.024 66.1738 229.896 66.6005 229.64C67.0378 229.384 67.3792 229.037 67.6245 228.6C67.8805 228.152 68.0085 227.656 68.0085 227.112C68.0085 226.557 67.8858 226.056 67.6405 225.608C67.3952 225.16 67.0538 224.808 66.6165 224.552C66.1898 224.296 65.7152 224.168 65.1925 224.168C64.6592 224.168 64.1792 224.296 63.7525 224.552C63.3258 224.808 62.9898 225.16 62.7445 225.608C62.4992 226.056 62.3765 226.557 62.3765 227.112C62.3765 227.656 62.4992 228.152 62.7445 228.6C62.9898 229.037 63.3258 229.384 63.7525 229.64C64.1792 229.896 64.6538 230.024 65.1765 230.024Z" fill="#002E48"/>
<path d="M74.9901 223.032C75.8968 223.032 76.6061 223.315 77.1181 223.88C77.6301 224.445 77.8861 225.187 77.8861 226.104V231H76.6541V226.248C76.6541 225.629 76.4781 225.128 76.1261 224.744C75.7848 224.36 75.3155 224.168 74.7181 224.168C74.1208 224.168 73.6301 224.365 73.2461 224.76C72.8621 225.144 72.6701 225.64 72.6701 226.248V231H71.4381V223.208H72.5901V224.04C72.8781 223.72 73.2248 223.475 73.6301 223.304C74.0461 223.123 74.4995 223.032 74.9901 223.032Z" fill="#002E48"/>
<path d="M87.3806 227.48H81.2206C81.2953 228.248 81.5993 228.867 82.1326 229.336C82.666 229.805 83.3166 230.04 84.0846 230.04C84.97 230.04 85.7646 229.688 86.4686 228.984L87.1886 229.816C86.7833 230.243 86.314 230.579 85.7806 230.824C85.258 231.059 84.6873 231.176 84.0686 231.176C83.3006 231.176 82.602 231 81.9726 230.648C81.3433 230.285 80.8473 229.795 80.4846 229.176C80.122 228.557 79.9406 227.869 79.9406 227.112C79.9406 226.365 80.1166 225.683 80.4686 225.064C80.8206 224.435 81.3006 223.939 81.9086 223.576C82.5166 223.213 83.1886 223.032 83.9246 223.032C84.586 223.032 85.1886 223.181 85.7326 223.48C86.2766 223.779 86.7033 224.195 87.0126 224.728C87.322 225.261 87.4766 225.869 87.4766 226.552C87.4766 226.851 87.4446 227.16 87.3806 227.48ZM83.8926 224.152C83.242 224.152 82.6766 224.36 82.1966 224.776C81.7166 225.181 81.4073 225.72 81.2686 226.392H86.2126C86.202 225.699 85.9726 225.155 85.5246 224.76C85.0873 224.355 84.5433 224.152 83.8926 224.152Z" fill="#002E48"/>
<path d="M89.1292 225.448H92.9532V226.488H89.1292V225.448Z" fill="#002E48"/>
<path d="M98.6925 231.176C97.9458 231.176 97.2578 230.995 96.6285 230.632C96.0098 230.269 95.5192 229.779 95.1565 229.16C94.7938 228.531 94.6125 227.843 94.6125 227.096C94.6125 226.349 94.7938 225.667 95.1565 225.048C95.5192 224.429 96.0098 223.939 96.6285 223.576C97.2578 223.213 97.9458 223.032 98.6925 223.032C99.3752 223.032 99.9938 223.187 100.549 223.496C101.103 223.795 101.557 224.205 101.909 224.728L101.029 225.432C100.399 224.589 99.6258 224.168 98.7085 224.168C98.1752 224.168 97.6898 224.301 97.2525 224.568C96.8258 224.824 96.4898 225.176 96.2445 225.624C95.9992 226.072 95.8765 226.563 95.8765 227.096C95.8765 227.64 95.9992 228.136 96.2445 228.584C96.4898 229.032 96.8258 229.389 97.2525 229.656C97.6898 229.912 98.1752 230.04 98.7085 230.04C99.6258 230.04 100.394 229.624 101.012 228.792L101.893 229.48C101.541 230.003 101.087 230.419 100.533 230.728C99.9885 231.027 99.3752 231.176 98.6925 231.176Z" fill="#002E48"/>
<path d="M107.553 223.032C108.449 223.032 109.153 223.315 109.665 223.88C110.177 224.445 110.433 225.187 110.433 226.104V231H109.201V226.264C109.201 225.635 109.025 225.128 108.673 224.744C108.332 224.36 107.862 224.168 107.265 224.168C106.668 224.168 106.177 224.365 105.793 224.76C105.409 225.155 105.217 225.656 105.217 226.264V231H103.985V219H105.217V224.088C105.484 223.757 105.814 223.501 106.209 223.32C106.614 223.128 107.062 223.032 107.553 223.032Z" fill="#002E48"/>
<path d="M115.848 223.032C116.765 223.032 117.501 223.304 118.056 223.848C118.61 224.392 118.887 225.176 118.887 226.2V231H117.736V229.992C117.448 230.376 117.08 230.669 116.632 230.872C116.184 231.075 115.677 231.176 115.112 231.176C114.312 231.176 113.656 230.979 113.144 230.584C112.642 230.189 112.392 229.656 112.392 228.984C112.392 228.323 112.648 227.795 113.16 227.4C113.672 227.005 114.349 226.808 115.191 226.808H117.656V226.136C117.656 225.496 117.485 225.011 117.144 224.68C116.813 224.339 116.354 224.168 115.768 224.168C115.298 224.168 114.882 224.275 114.52 224.488C114.157 224.691 113.815 225 113.495 225.416L112.679 224.744C113.031 224.168 113.485 223.741 114.039 223.464C114.594 223.176 115.197 223.032 115.848 223.032ZM115.271 230.152C115.698 230.152 116.093 230.061 116.455 229.88C116.818 229.688 117.106 229.427 117.32 229.096C117.544 228.765 117.656 228.403 117.656 228.008V227.816H115.336C114.792 227.816 114.376 227.912 114.088 228.104C113.8 228.285 113.656 228.557 113.656 228.92C113.656 229.315 113.81 229.619 114.119 229.832C114.429 230.045 114.813 230.152 115.271 230.152Z" fill="#002E48"/>
<path d="M125.053 223.032C125.959 223.032 126.669 223.315 127.181 223.88C127.693 224.445 127.949 225.187 127.949 226.104V231H126.717V226.248C126.717 225.629 126.541 225.128 126.189 224.744C125.847 224.36 125.378 224.168 124.781 224.168C124.183 224.168 123.693 224.365 123.309 224.76C122.925 225.144 122.733 225.64 122.733 226.248V231H121.501V223.208H122.653V224.04C122.941 223.72 123.287 223.475 123.693 223.304C124.109 223.123 124.562 223.032 125.053 223.032Z" fill="#002E48"/>
<path d="M134.115 223.032C135.022 223.032 135.731 223.315 136.243 223.88C136.755 224.445 137.011 225.187 137.011 226.104V231H135.779V226.248C135.779 225.629 135.603 225.128 135.251 224.744C134.91 224.36 134.44 224.168 133.843 224.168C133.246 224.168 132.755 224.365 132.371 224.76C131.987 225.144 131.795 225.64 131.795 226.248V231H130.563V223.208H131.715V224.04C132.003 223.72 132.35 223.475 132.755 223.304C133.171 223.123 133.624 223.032 134.115 223.032Z" fill="#002E48"/>
<path d="M146.506 227.48H140.346C140.42 228.248 140.724 228.867 141.258 229.336C141.791 229.805 142.442 230.04 143.21 230.04C144.095 230.04 144.89 229.688 145.594 228.984L146.314 229.816C145.908 230.243 145.439 230.579 144.906 230.824C144.383 231.059 143.812 231.176 143.194 231.176C142.426 231.176 141.727 231 141.098 230.648C140.468 230.285 139.972 229.795 139.61 229.176C139.247 228.557 139.066 227.869 139.066 227.112C139.066 226.365 139.242 225.683 139.594 225.064C139.946 224.435 140.426 223.939 141.034 223.576C141.642 223.213 142.314 223.032 143.05 223.032C143.711 223.032 144.314 223.181 144.858 223.48C145.402 223.779 145.828 224.195 146.138 224.728C146.447 225.261 146.602 225.869 146.602 226.552C146.602 226.851 146.57 227.16 146.506 227.48ZM143.018 224.152C142.367 224.152 141.802 224.36 141.322 224.776C140.842 225.181 140.532 225.72 140.394 226.392H145.338C145.327 225.699 145.098 225.155 144.65 224.76C144.212 224.355 143.668 224.152 143.018 224.152Z" fill="#002E48"/>
<path d="M148.766 219H149.998V231H148.766V219Z" fill="#002E48"/>
<path d="M165.732 223.032C166.628 223.032 167.321 223.315 167.812 223.88C168.313 224.435 168.564 225.176 168.564 226.104V231H167.332V226.264C167.332 225.635 167.167 225.128 166.836 224.744C166.516 224.36 166.068 224.168 165.492 224.168C164.905 224.168 164.425 224.36 164.052 224.744C163.679 225.128 163.492 225.597 163.492 226.152V231H162.26V226.264C162.26 225.635 162.089 225.128 161.748 224.744C161.417 224.36 160.969 224.168 160.404 224.168C159.817 224.168 159.337 224.365 158.964 224.76C158.601 225.144 158.42 225.645 158.42 226.264V231H157.188V223.208H158.34V224.024C158.617 223.704 158.953 223.459 159.348 223.288C159.743 223.117 160.18 223.032 160.66 223.032C161.225 223.032 161.711 223.149 162.116 223.384C162.521 223.619 162.836 223.949 163.06 224.376C163.348 223.971 163.721 223.645 164.18 223.4C164.639 223.155 165.156 223.032 165.732 223.032Z" fill="#002E48"/>
<path d="M173.973 223.032C174.89 223.032 175.626 223.304 176.18 223.848C176.735 224.392 177.012 225.176 177.012 226.2V231H175.861V229.992C175.573 230.376 175.205 230.669 174.757 230.872C174.309 231.075 173.802 231.176 173.236 231.176C172.436 231.176 171.78 230.979 171.268 230.584C170.767 230.189 170.516 229.656 170.516 228.984C170.516 228.323 170.773 227.795 171.285 227.4C171.797 227.005 172.474 226.808 173.316 226.808H175.781V226.136C175.781 225.496 175.61 225.011 175.268 224.68C174.938 224.339 174.479 224.168 173.893 224.168C173.423 224.168 173.007 224.275 172.645 224.488C172.282 224.691 171.94 225 171.62 225.416L170.805 224.744C171.157 224.168 171.61 223.741 172.165 223.464C172.719 223.176 173.322 223.032 173.973 223.032ZM173.396 230.152C173.823 230.152 174.218 230.061 174.581 229.88C174.943 229.688 175.231 229.427 175.445 229.096C175.669 228.765 175.781 228.403 175.781 228.008V227.816H173.46C172.916 227.816 172.5 227.912 172.212 228.104C171.924 228.285 171.781 228.557 171.781 228.92C171.781 229.315 171.935 229.619 172.245 229.832C172.554 230.045 172.938 230.152 173.396 230.152Z" fill="#002E48"/>
<path d="M183.77 223.208V224.296H183.306C182.868 224.296 182.463 224.387 182.09 224.568C181.716 224.749 181.418 225.011 181.194 225.352C180.97 225.693 180.858 226.104 180.858 226.584V231H179.626V223.208H180.778V224.312C181.055 223.939 181.407 223.651 181.834 223.448C182.271 223.245 182.724 223.144 183.194 223.144C183.364 223.144 183.556 223.165 183.77 223.208Z" fill="#002E48"/>
<path d="M185.423 219H186.654V231H185.423V219ZM191.951 231H190.367L186.783 226.616L190.031 223.208H191.646L188.271 226.632L191.951 231Z" fill="#002E48"/>
<path d="M200.084 227.48H193.924C193.998 228.248 194.302 228.867 194.836 229.336C195.369 229.805 196.02 230.04 196.788 230.04C197.673 230.04 198.468 229.688 199.172 228.984L199.892 229.816C199.486 230.243 199.017 230.579 198.484 230.824C197.961 231.059 197.39 231.176 196.772 231.176C196.004 231.176 195.305 231 194.676 230.648C194.046 230.285 193.55 229.795 193.188 229.176C192.825 228.557 192.644 227.869 192.644 227.112C192.644 226.365 192.82 225.683 193.172 225.064C193.524 224.435 194.004 223.939 194.612 223.576C195.22 223.213 195.892 223.032 196.628 223.032C197.289 223.032 197.892 223.181 198.436 223.48C198.98 223.779 199.406 224.195 199.716 224.728C200.025 225.261 200.18 225.869 200.18 226.552C200.18 226.851 200.148 227.16 200.084 227.48ZM196.596 224.152C195.945 224.152 195.38 224.36 194.9 224.776C194.42 225.181 194.11 225.72 193.972 226.392H198.916C198.905 225.699 198.676 225.155 198.228 224.76C197.79 224.355 197.246 224.152 196.596 224.152Z" fill="#002E48"/>
<path d="M206.6 229.96V231C206.11 231.117 205.678 231.176 205.304 231.176C204.494 231.176 203.854 230.968 203.384 230.552C202.915 230.136 202.68 229.501 202.68 228.648V224.312H201.368V223.208H202.68V221.08H203.912V223.208H206.344V224.312H203.912V228.568C203.912 229.123 204.051 229.512 204.328 229.736C204.616 229.949 205.027 230.056 205.56 230.056C205.859 230.056 206.206 230.024 206.6 229.96Z" fill="#002E48"/>
<path d="M208.438 223.208H209.67V231H208.438V223.208ZM209.062 221.128C208.806 221.128 208.587 221.043 208.406 220.872C208.225 220.701 208.134 220.488 208.134 220.232C208.134 219.987 208.225 219.779 208.406 219.608C208.587 219.427 208.806 219.336 209.062 219.336C209.307 219.336 209.521 219.427 209.702 219.608C209.883 219.779 209.974 219.987 209.974 220.232C209.974 220.488 209.883 220.701 209.702 220.872C209.531 221.043 209.318 221.128 209.062 221.128Z" fill="#002E48"/>
<path d="M215.928 223.032C216.834 223.032 217.544 223.315 218.056 223.88C218.568 224.445 218.824 225.187 218.824 226.104V231H217.592V226.248C217.592 225.629 217.416 225.128 217.064 224.744C216.722 224.36 216.253 224.168 215.656 224.168C215.058 224.168 214.568 224.365 214.184 224.76C213.8 225.144 213.608 225.64 213.608 226.248V231H212.376V223.208H213.528V224.04C213.816 223.72 214.162 223.475 214.568 223.304C214.984 223.123 215.437 223.032 215.928 223.032Z" fill="#002E48"/>
<path d="M228.926 223.208V230.248C228.926 231.432 228.579 232.36 227.886 233.032C227.203 233.715 226.286 234.056 225.134 234.056C224.377 234.056 223.683 233.912 223.054 233.624C222.435 233.347 221.907 232.989 221.47 232.552L222.19 231.688C222.627 232.072 223.075 232.371 223.534 232.584C223.993 232.808 224.515 232.92 225.102 232.92C225.913 232.92 226.547 232.696 227.006 232.248C227.465 231.8 227.694 231.155 227.694 230.312V229.624C227.385 230.029 226.969 230.349 226.446 230.584C225.934 230.808 225.385 230.92 224.798 230.92C224.073 230.92 223.417 230.749 222.83 230.408C222.254 230.067 221.801 229.597 221.47 229C221.139 228.403 220.974 227.731 220.974 226.984C220.974 226.237 221.139 225.565 221.47 224.968C221.801 224.371 222.254 223.901 222.83 223.56C223.417 223.208 224.073 223.032 224.798 223.032C225.417 223.032 225.987 223.16 226.51 223.416C227.043 223.661 227.459 224.008 227.758 224.456V223.208H228.926ZM224.99 229.784C225.47 229.784 225.913 229.683 226.318 229.48C226.734 229.277 227.07 228.968 227.326 228.552C227.582 228.125 227.71 227.603 227.71 226.984C227.71 226.365 227.582 225.848 227.326 225.432C227.07 225.016 226.734 224.707 226.318 224.504C225.902 224.301 225.459 224.2 224.99 224.2C224.467 224.2 223.993 224.323 223.566 224.568C223.15 224.803 222.819 225.133 222.574 225.56C222.339 225.976 222.222 226.456 222.222 227C222.222 227.544 222.339 228.029 222.574 228.456C222.819 228.872 223.15 229.197 223.566 229.432C223.993 229.667 224.467 229.784 224.99 229.784Z" fill="#002E48"/>
<defs>
<linearGradient id="paint0_linear_437_1755" x1="129.5" y1="65" x2="129.5" y2="164" gradientUnits="userSpaceOnUse">
<stop stop-color="#FBECC2" stop-opacity="0.3"/>
<stop offset="1" stop-color="#F2E3B9" stop-opacity="0"/>
</linearGradient>
<linearGradient id="paint1_linear_437_1755" x1="129.5" y1="22" x2="129.5" y2="164" gradientUnits="userSpaceOnUse">
<stop stop-color="#4996FD" stop-opacity="0.5"/>
<stop offset="0.0001" stop-color="#3689F9" stop-opacity="0.35"/>
<stop offset="1" stop-color="#0167EF" stop-opacity="0"/>
<stop offset="1" stop-color="#0167EF" stop-opacity="0"/>
</linearGradient>
</defs>
</svg>
