<svg width="12" height="11" viewBox="0 0 12 11" fill="none" xmlns="http://www.w3.org/2000/svg">
<path d="M0 4.25C0 3.55964 0.559644 3 1.25 3C1.94036 3 2.5 3.55964 2.5 4.25V9.75C2.5 10.4404 1.94036 11 1.25 11C0.559644 11 0 10.4404 0 9.75V4.25Z" fill="white"/>
<path d="M3 5.25C3 4.55964 3.55964 4 4.25 4C4.94036 4 5.5 4.55964 5.5 5.25V9.75C5.5 10.4404 4.94036 11 4.25 11C3.55964 11 3 10.4404 3 9.75V5.25Z" fill="white"/>
<path d="M6 4.25C6 3.55964 6.55964 3 7.25 3C7.94036 3 8.5 3.55964 8.5 4.25V9.75C8.5 10.4404 7.94036 11 7.25 11C6.55964 11 6 10.4404 6 9.75V4.25Z" fill="white"/>
<path d="M9 1.25C9 0.559644 9.55964 0 10.25 0C10.9404 0 11.5 0.559644 11.5 1.25V9.75C11.5 10.4404 10.9404 11 10.25 11C9.55964 11 9 10.4404 9 9.75V1.25Z" fill="white"/>
</svg>
