<svg width="14" height="14" viewBox="0 0 14 14" fill="none" xmlns="http://www.w3.org/2000/svg">
<path d="M9.8503 13H4.1497C3.37725 13 3 12.6064 3 11.7453V7.23065C3 6.45566 3.31138 6.05587 3.9521 5.98821V4.43824C3.9521 2.11943 5.43114 1 7 1C8.56886 1 10.0479 2.11943 10.0479 4.43824V6.01896C10.6347 6.11123 11 6.50487 11 7.23065V11.7453C11 12.6064 10.6228 13 9.8503 13ZM9.08383 4.30907C9.08383 2.76525 8.11976 1.94721 7 1.94721C5.88024 1.94721 4.91617 2.76525 4.91617 4.30907V5.98206L9.08383 5.98821V4.30907Z" fill="white"/>
</svg>
