<svg width="14" height="14" viewBox="0 0 14 14" fill="none" xmlns="http://www.w3.org/2000/svg">
<path d="M7 1C6.49231 1 6.07692 1.41538 6.07692 1.92308C6.07692 2.43077 6.49231 2.84615 7 2.84615C9.30769 2.84615 11.1538 4.69231 11.1538 7C11.1538 9.30769 9.30769 11.1538 7 11.1538C4.69231 11.1538 2.84615 9.30769 2.84615 7C2.84615 6.49231 2.43077 6.07692 1.92308 6.07692C1.41538 6.07692 1 6.49231 1 7C1 10.3231 3.67692 13 7 13C10.3231 13 13 10.3231 13 7C13 3.67692 10.3231 1 7 1Z" fill="white"/>
<path d="M9.30777 6.99999C9.30777 8.27447 8.27455 9.30768 7.00008 9.30768C5.7256 9.30768 4.69238 8.27447 4.69238 6.99999C4.69238 5.72551 5.7256 4.6923 7.00008 4.6923C8.27455 4.6923 9.30777 5.72551 9.30777 6.99999Z" fill="white"/>
</svg>
